<svg width="90" height="90" viewBox="0 0 90 90" fill="none" xmlns="http://www.w3.org/2000/svg">
<path fill-rule="evenodd" clip-rule="evenodd" d="M78.6375 13.9818L76.7869 13.6875L76.3013 11.8762L79.0931 11.1262L78.6375 13.9818ZM53.85 39.9131L52.2544 40.8956L52.2506 40.8918L52.245 40.8825L52.2262 40.8525L52.1625 40.7456L51.9375 40.3575C51.675 39.8982 51.4219 39.4338 51.1781 38.9643C50.4062 37.4889 49.7335 35.9636 49.1644 34.3987C48.5306 32.6287 47.9869 30.6018 47.9025 28.6406C47.82 26.6868 48.1838 24.5662 49.6388 22.9031C50.9456 21.4106 53.4094 20.0362 55.9987 18.8475C58.6819 17.6118 61.8394 16.4268 64.83 15.4012C68.5345 14.1364 72.2761 12.9833 76.05 11.9437L76.2375 11.8912L76.3031 11.8725L76.7906 13.6856L78.6413 13.98L78.63 14.0493L78.5981 14.2481C78.4109 15.3984 78.2147 16.5472 78.0094 17.6943C77.5098 20.5155 76.9647 23.3283 76.3744 26.1318C75.7069 29.2837 74.9306 32.5875 74.1075 35.3531C73.7408 36.6176 73.3109 37.8629 72.8194 39.0843C72.3919 40.1156 71.8856 41.1168 71.2706 41.8218C69.9544 43.3256 67.905 43.7962 66.1144 43.9162C64.2469 44.0419 62.1769 43.815 60.315 43.485C58.6545 43.1861 57.0099 42.8043 55.3875 42.3412C54.7236 42.1542 54.0635 41.9542 53.4075 41.7412L53.2894 41.7L53.2575 41.6887L53.2481 41.6868H53.2444L53.85 39.9131ZM53.85 39.9131L52.2544 40.8956L52.6069 41.4675L53.2444 41.6868L53.85 39.9131ZM55.11 38.3512C57.0302 38.9483 58.9843 39.4304 60.9619 39.795C62.6944 40.1006 64.4269 40.2731 65.8631 40.1756C67.38 40.0743 68.1413 39.7031 68.4469 39.3543C68.6419 39.1293 68.9606 38.5968 69.3544 37.6481C69.7957 36.5474 70.1818 35.4254 70.5112 34.2862C71.2931 31.6612 72.045 28.4681 72.705 25.3575C73.3384 22.348 73.9185 19.3275 74.445 16.2975L73.8656 16.4662C71.7863 17.0793 68.9775 17.9437 66.0469 18.9487C63.1106 19.9556 60.0863 21.0937 57.5644 22.2543C54.9469 23.4581 53.1806 24.5512 52.4606 25.3743C51.885 26.0306 51.5888 27.0412 51.6506 28.4793C51.7106 29.91 52.1213 31.5356 52.695 33.1312C53.35 34.9368 54.1579 36.6831 55.11 38.3512ZM19.2431 18.7012L18.7575 20.5125L16.905 20.8068L16.4512 17.9531L19.2431 18.7012ZM37.3969 41.8256L38.9925 42.8062L38.9963 42.8025L39 42.795L39.015 42.7706L39.0694 42.6806L39.2569 42.3618C40.1535 40.7961 40.9157 39.1571 41.535 37.4625C42.0562 36.0075 42.51 34.3218 42.5794 32.6793C42.6506 31.0425 42.3469 29.2162 41.0831 27.7725C39.9656 26.4937 37.8975 25.3537 35.7975 24.3862C33.6019 23.3756 31.0237 22.4081 28.5881 21.5737C25.5713 20.5444 22.5243 19.6059 19.4512 18.7593L19.2975 18.7162L19.2431 18.7012L18.7575 20.5125L16.905 20.8068L16.9144 20.8631L16.9406 21.0262L17.0419 21.6375C17.5477 24.6704 18.1172 27.6923 18.75 30.7012C19.2937 33.2662 19.9275 35.9606 20.5987 38.22C20.9362 39.3487 21.2887 40.4006 21.6581 41.2875C22.0087 42.1312 22.4381 42.9918 22.9781 43.6068C24.1406 44.9381 25.9275 45.3318 27.4069 45.4293C28.9669 45.5343 30.6787 45.345 32.2069 45.0768C34.1259 44.7337 36.0181 44.2551 37.8694 43.6443L37.965 43.6125L37.9931 43.6031L38.0025 43.5993L37.3969 41.8256ZM37.3969 41.8256L38.9925 42.8062L38.64 43.38L38.0025 43.5993L37.3969 41.8256ZM36.135 40.2618C36.2537 40.0493 36.3925 39.7912 36.5512 39.4875C36.9975 38.6287 37.5525 37.4587 38.0044 36.195C38.4637 34.9162 38.7862 33.6318 38.8331 32.52C38.8819 31.3968 38.6456 30.6825 38.2612 30.24C37.7306 29.6362 36.3619 28.7737 34.23 27.7931C32.1975 26.8575 29.7525 25.9368 27.3712 25.1212C25.2969 24.4129 23.2077 23.749 21.105 23.13L21.1125 23.1768C21.4312 24.9768 21.885 27.4068 22.4194 29.925C22.9537 32.4487 23.5631 35.0306 24.1931 37.1512C24.51 38.2125 24.8212 39.1293 25.1212 39.8493C25.44 40.6125 25.68 41.0006 25.8 41.1393C25.9537 41.3137 26.4506 41.6081 27.6581 41.6887C28.785 41.7637 30.1612 41.6287 31.5562 41.3831C33.1045 41.1051 34.6338 40.7319 36.135 40.2618ZM32.0288 58.1362C31.5525 58.1625 31.32 58.23 31.26 58.2562C30.4106 58.6406 27.8306 59.5406 25.6031 60.3C24.4594 60.6918 23.3625 61.0593 22.5525 61.3312L22.5 61.35V71.4806C22.83 71.4656 23.1844 71.4525 23.5462 71.4394C25.0987 71.3831 26.9456 71.3269 27.7462 71.3606C31.1062 71.4937 33.63 72.2887 35.9662 73.0256L36.0169 73.0425C38.2069 73.7325 40.2356 74.3662 42.8925 74.5668C43.6425 74.6231 44.3719 74.6962 45.0525 74.7637H45.0619C47.6756 75.0262 49.3969 75.1575 50.73 74.6737C51.7669 74.2968 55.5638 72.5362 59.3925 70.6106C61.2863 69.6581 63.1425 68.6887 64.6181 67.8581C65.3588 67.4419 65.9869 67.0706 66.4688 66.7593C66.7075 66.6043 66.9 66.4731 67.0462 66.3656L67.215 66.2344L67.2675 66.1893C67.455 66 67.6538 65.34 67.3312 64.7193C67.1795 64.4291 66.9287 64.2029 66.6244 64.0818C66.2494 63.9187 65.6119 63.7931 64.5994 63.96C62.3156 64.335 59.5875 65.4337 56.8631 66.5418L56.8256 66.5587C55.4869 67.1025 54.1444 67.6481 52.9538 68.0456C51.81 68.4262 50.5406 68.7675 49.4344 68.7018C47.9156 68.6081 45.2512 68.2144 43.0537 67.8581C41.7909 67.6539 40.5296 67.4402 39.27 67.2168L39.0262 67.1737L38.94 67.1569L39.2962 63.4368L47.865 63.54H47.8838C47.9839 63.5292 48.0829 63.5104 48.18 63.4837C48.4762 63.4087 48.9844 63.2231 49.6237 62.7712C49.8206 62.6306 50.0794 62.3719 50.3212 62.025C50.4212 61.88 50.5063 61.7387 50.5763 61.6012C49.5316 61.534 48.4936 61.3873 47.4713 61.1625C46.9146 61.0412 46.3624 60.9005 45.8156 60.7406L45.7519 60.7218L35.2575 58.3856L35.1581 58.3687L34.7644 58.3087C34.3355 58.2457 33.9047 58.1975 33.4725 58.1643C32.9923 58.1241 32.5101 58.1147 32.0288 58.1362ZM35.625 56.55L35.9644 54.7068L35.9981 54.7125L46.7194 57.0975L46.7981 57.1218L46.8131 57.1275L46.8844 57.1481L47.1806 57.2325C47.4412 57.3037 47.8162 57.4012 48.2625 57.4987C49.1737 57.6956 50.3138 57.8775 51.3675 57.8775C52.4231 57.8775 53.5706 58.2712 54.1894 59.3925C54.7181 60.3525 54.5869 61.3912 54.4012 62.0775C54.2285 62.6841 53.9717 63.2634 53.6381 63.7987C54.2094 63.5737 54.8131 63.3312 55.4494 63.0712L55.5656 63.0225C58.1494 61.9725 61.2469 60.7125 63.99 60.2606C67.1775 59.7393 69.5681 60.8831 70.6613 62.9981C71.625 64.8637 71.4112 67.3237 69.9394 68.82C69.57 69.195 69.0206 69.5756 68.4956 69.915C67.8269 70.338 67.1466 70.7425 66.4556 71.1281C64.9088 71.9981 62.9944 72.9975 61.0744 73.9631C57.2831 75.87 53.2894 77.7356 52.0069 78.2006C49.7831 79.0069 47.2106 78.75 44.925 78.5212L44.6869 78.4968C43.9952 78.426 43.3026 78.3635 42.6094 78.3093C39.4969 78.0731 37.1119 77.3212 34.9331 76.635L34.8863 76.62C32.5425 75.8812 30.4312 75.2231 27.5962 75.1087C26.9737 75.0844 25.2975 75.1293 23.6812 75.1893C22.7711 75.2224 21.8611 75.2592 20.9512 75.3L20.7094 75.3112L18.7481 75.4012V58.6462L20.3925 58.1006C21.7268 57.6572 23.0593 57.2084 24.39 56.7543C26.7225 55.9575 29.0737 55.1306 29.715 54.8419C30.4031 54.5306 31.185 54.4293 31.8112 54.3918C32.4769 54.3544 33.1612 54.3825 33.7594 54.4275C34.4792 54.485 35.1962 54.5744 35.9081 54.6956L35.9475 54.7031H35.9587L35.9625 54.705H35.9662L35.625 56.55Z" fill="white"/>
<path fill-rule="evenodd" clip-rule="evenodd" d="M65.9062 24.8251C66.0934 24.9851 66.2472 25.1805 66.3588 25.3999C66.4705 25.6194 66.5378 25.8587 66.5569 26.1042C66.5761 26.3497 66.5467 26.5966 66.4705 26.8308C66.3942 27.0649 66.2726 27.2817 66.1125 27.4688C60.5231 33.9901 53.565 43.547 50.4937 51.3151C50.4031 51.5441 50.2683 51.753 50.097 51.9299C49.9256 52.1068 49.7211 52.2482 49.4951 52.346C49.2691 52.4439 49.0261 52.4962 48.7798 52.5002C48.5336 52.5041 48.289 52.4595 48.06 52.3688C47.831 52.2782 47.6221 52.1434 47.4452 51.9721C47.2683 51.8007 47.1269 51.5962 47.0291 51.3702C46.9312 51.1442 46.8788 50.9012 46.8749 50.6549C46.871 50.4087 46.9156 50.1641 47.0062 49.9351C50.3119 41.5745 57.6019 31.6351 63.2625 25.0295C63.5862 24.6521 64.0466 24.4187 64.5424 24.3807C65.0382 24.3427 65.5288 24.5033 65.9062 24.827M28.8375 30.8401C28.6441 30.9927 28.4828 31.1819 28.3626 31.3969C28.2424 31.6119 28.1657 31.8485 28.137 32.0932C28.1082 32.3378 28.128 32.5857 28.1951 32.8227C28.2622 33.0597 28.3754 33.2812 28.5281 33.4745C32.7319 38.8088 37.3219 45.6357 39.5006 51.2982C39.6877 51.7502 40.0439 52.1111 40.4934 52.3041C40.9429 52.4971 41.4499 52.5067 41.9064 52.3311C42.3629 52.1554 42.7327 51.8084 42.9369 51.3639C43.1411 50.9194 43.1635 50.4127 42.9994 49.952C40.6162 43.757 35.7469 36.5738 31.4719 31.1532C31.1642 30.7627 30.7141 30.5103 30.2205 30.4516C29.7268 30.3929 29.2282 30.5326 28.8375 30.8401Z" fill="white"/>
<path d="M11.25 54.375H22.5V78.75H11.25V54.375Z" fill="white"/>
</svg>
