<svg width="75" height="75" viewBox="0 0 75 75" fill="none" xmlns="http://www.w3.org/2000/svg">
<path d="M37.5 35.0678C33.4928 32.1053 27.4875 26.9249 10.2696 26.9249V64.0178C27.4875 64.0178 33.4928 69.1982 37.5 72.1607M37.5 35.0678V72.1607M37.5 35.0678C41.5071 32.1053 47.5125 26.9249 64.7303 26.9249V64.0178C47.5125 64.0178 41.5071 69.1982 37.5 72.1607M48.1393 3.08031V16.1089M57.6589 2.79102H21.8893C20.8899 2.7898 19.9101 3.06815 19.0607 3.59459L9.64819 9.45531L19.0607 15.3053C19.9101 15.8317 20.8899 16.1101 21.8893 16.1089H57.6589C58.5489 16.1341 59.4349 15.9806 60.2646 15.6575C61.0942 15.3343 61.8506 14.8481 62.4891 14.2275C63.1275 13.6069 63.635 12.8646 63.9816 12.0444C64.3281 11.2243 64.5067 10.343 64.5067 9.45263C64.5067 8.56227 64.3281 7.68095 63.9816 6.8608C63.635 6.04066 63.1275 5.29834 62.4891 4.67775C61.8506 4.05716 61.0942 3.57091 60.2646 3.24776C59.4349 2.92461 58.5489 2.76577 57.6589 2.79102Z" stroke="white" stroke-width="3.42857" stroke-linecap="round" stroke-linejoin="round"/>
</svg>
