<svg width="50" height="49" viewBox="0 0 50 49" fill="none" xmlns="http://www.w3.org/2000/svg">
<path fill-rule="evenodd" clip-rule="evenodd" d="M10.1014 45.8355C8.39763 45.8355 6.77918 45.1588 5.56001 43.9549C4.34084 42.751 3.67944 41.1173 3.67944 39.4135V9.57432C3.67944 7.87053 4.35608 6.25208 5.56001 5.03291C6.76394 3.81374 8.39763 3.15234 10.1014 3.15234H39.9406C41.6444 3.15234 43.2628 3.82898 44.482 5.03291C45.7012 6.23684 46.3626 7.87053 46.3626 9.57432V39.4135C46.3626 41.1173 45.6859 42.7357 44.482 43.9549C43.2781 45.1741 41.6444 45.8355 39.9406 45.8355H10.1014ZM36.1612 27.8222H31.6502V42.7266H39.9406C40.376 42.7278 40.8074 42.6429 41.2099 42.4768C41.6124 42.3108 41.9781 42.0668 42.286 41.7589C42.5939 41.451 42.8379 41.0853 43.0039 40.6828C43.17 40.2803 43.2549 39.8489 43.2537 39.4135V9.57432C43.2541 9.13912 43.1687 8.70812 43.0023 8.30598C42.8359 7.90383 42.5919 7.53844 42.2842 7.23071C41.9765 6.92298 41.6111 6.67896 41.2089 6.5126C40.8068 6.34625 40.3758 6.26082 39.9406 6.26123H10.1014C9.22347 6.26364 8.38218 6.61347 7.76137 7.23427C7.14057 7.85508 6.79074 8.69637 6.78832 9.57432V39.4135C6.79074 40.2914 7.14057 41.1327 7.76137 41.7535C8.38218 42.3743 9.22347 42.7242 10.1014 42.7266H26.6821V27.8222H21.714V22.8541H26.6821V20.1841C26.6821 15.1246 29.1448 12.8996 33.3571 12.8996C35.3291 12.8996 36.3898 13.0429 36.8927 13.113L36.9231 13.116V17.8708H34.0581C32.6134 17.8708 31.9306 18.4895 31.7234 19.7361C31.6736 20.0608 31.6502 20.389 31.6533 20.7175V22.8419H36.8652L36.1551 27.81L36.1612 27.8222Z" fill="white"/>
</svg>
