<svg width="44" height="44" viewBox="0 0 44 44" fill="none" xmlns="http://www.w3.org/2000/svg">
<path d="M21.7324 0.325928C15.8411 0.325928 15.1069 0.354375 12.8013 0.451909C10.4862 0.565698 8.92027 0.924675 7.53855 1.46111C6.09248 2.00717 4.78285 2.86192 3.70087 3.96583C2.59527 5.04641 1.74026 6.35644 1.19616 7.8035C0.659722 9.18522 0.300744 10.7512 0.186955 13.0662C0.0826482 15.3732 0.0609741 16.106 0.0609741 21.9973C0.0609741 27.8886 0.0894214 28.6228 0.186955 30.9284C0.300744 33.2367 0.659722 34.8095 1.19616 36.1912C1.74222 37.6372 2.59697 38.9469 3.70087 40.0289C4.78146 41.1345 6.09149 41.9895 7.53855 42.5336C8.92027 43.0632 10.493 43.429 12.8013 43.5428C15.1082 43.6471 15.8411 43.6688 21.7324 43.6688C27.6237 43.6688 28.3579 43.6403 30.6635 43.5428C32.9718 43.429 34.5445 43.0619 35.9262 42.5336C37.3723 41.9875 38.6819 41.1328 39.7639 40.0289C40.873 38.9511 41.7285 37.6403 42.2686 36.1912C42.7983 34.8095 43.164 33.2367 43.2778 30.9284C43.3821 28.6215 43.4038 27.8886 43.4038 21.9973C43.4038 16.106 43.3753 15.3718 43.2778 13.0662C43.164 10.758 42.7969 9.1771 42.2686 7.8035C41.7225 6.35744 40.8678 5.0478 39.7639 3.96583C38.6862 2.85675 37.3753 2.0012 35.9262 1.46111C34.5445 0.924675 32.9718 0.565698 30.6635 0.451909C28.3565 0.347602 27.6237 0.325928 21.7324 0.325928ZM21.7324 4.22727C27.518 4.22727 28.2089 4.25572 30.4955 4.35325C32.6047 4.45214 33.7534 4.80434 34.5161 5.10236C35.4587 5.45085 36.312 6.00473 37.014 6.72386C37.7334 7.42169 38.2855 8.27338 38.6287 9.21503C38.9267 9.97768 39.2789 11.1264 39.3778 13.2356C39.4754 15.5222 39.5038 16.2144 39.5038 21.9987C39.5038 27.783 39.4754 28.4752 39.3697 30.7618C39.2559 32.871 38.9037 34.0197 38.607 34.7824C38.1966 35.7997 37.7387 36.5109 36.9828 37.2803C36.2787 37.9952 35.4259 38.5465 34.4849 38.895C33.7317 39.193 32.5667 39.5452 30.4494 39.6441C28.1506 39.7417 27.4733 39.7701 21.6728 39.7701C15.8722 39.7701 15.1963 39.7417 12.8948 39.636C10.7856 39.5222 9.62197 39.17 8.85931 38.8733C7.82979 38.4629 7.12403 38.005 6.36814 37.2491C5.60548 36.4865 5.12053 35.7604 4.74665 34.7512C4.44321 33.998 4.09642 32.833 3.98399 30.7158C3.90678 28.444 3.8702 27.7396 3.8702 21.9662C3.8702 16.1954 3.90678 15.4897 3.98399 13.1895C4.09642 11.0722 4.44321 9.90995 4.74665 9.15407C5.12053 8.12319 5.60684 7.41878 6.36814 6.65613C7.12267 5.9016 7.82979 5.41393 8.85931 5.03192C9.62197 4.73526 10.7572 4.38305 12.8744 4.27739C15.1733 4.19476 15.8506 4.16496 21.643 4.16496L21.7324 4.22727ZM21.7324 10.8745C20.2712 10.8739 18.8242 11.1613 17.4742 11.7202C16.1241 12.2792 14.8974 13.0987 13.8642 14.1319C12.831 15.1651 12.0115 16.3918 11.4526 17.7418C10.8937 19.0919 10.6063 20.5389 10.6068 22C10.6063 23.4612 10.8937 24.9082 11.4526 26.2583C12.0115 27.6083 12.831 28.835 13.8642 29.8682C14.8974 30.9014 16.1241 31.7209 17.4742 32.2798C18.8242 32.8388 20.2712 33.1262 21.7324 33.1256C23.1936 33.1262 24.6405 32.8388 25.9906 32.2798C27.3407 31.7209 28.5673 30.9014 29.6006 29.8682C30.6338 28.835 31.4533 27.6083 32.0122 26.2583C32.5711 24.9082 32.8585 23.4612 32.858 22C32.8585 20.5389 32.5711 19.0919 32.0122 17.7418C31.4533 16.3918 30.6338 15.1651 29.6006 14.1319C28.5673 13.0987 27.3407 12.2792 25.9906 11.7202C24.6405 11.1613 23.1936 10.8739 21.7324 10.8745ZM21.7324 29.2243C17.7389 29.2243 14.5081 25.9935 14.5081 22C14.5081 18.0066 17.7389 14.7758 21.7324 14.7758C25.7258 14.7758 28.9566 18.0066 28.9566 22C28.9566 25.9935 25.7258 29.2243 21.7324 29.2243ZM35.9073 10.4301C35.9065 11.1205 35.6318 11.7824 35.1433 12.2704C34.6549 12.7583 33.9927 13.0324 33.3023 13.0324C32.9609 13.0324 32.6229 12.9651 32.3075 12.8345C31.9921 12.7039 31.7055 12.5124 31.4641 12.271C31.2228 12.0296 31.0313 11.743 30.9006 11.4276C30.77 11.1123 30.7028 10.7742 30.7028 10.4328C30.7028 10.0915 30.77 9.75343 30.9006 9.43804C31.0313 9.12265 31.2228 8.83608 31.4641 8.59469C31.7055 8.3533 31.9921 8.16182 32.3075 8.03118C32.6229 7.90054 32.9609 7.8333 33.3023 7.8333C34.7341 7.8333 35.9073 8.99829 35.9073 10.4301Z" fill="white"/>
</svg>
