<svg width="58" height="58" viewBox="0 0 58 58" fill="none" xmlns="http://www.w3.org/2000/svg">
<path d="M43.2033 7.91455C45.0894 7.91455 46.8984 8.66383 48.2321 9.99756C49.5658 11.3313 50.3151 13.1402 50.3151 15.0264V43.4737C50.3151 45.3598 49.5658 47.1688 48.2321 48.5025C46.8984 49.8362 45.0894 50.5855 43.2033 50.5855H14.756C12.8698 50.5855 11.0609 49.8362 9.72717 48.5025C8.39344 47.1688 7.64417 45.3598 7.64417 43.4737V15.0264C7.64417 13.1402 8.39344 11.3313 9.72717 9.99756C11.0609 8.66383 12.8698 7.91455 14.756 7.91455H43.2033ZM43.2033 12.6558H14.756C14.1273 12.6558 13.5243 12.9055 13.0797 13.3501C12.6351 13.7947 12.3854 14.3976 12.3854 15.0264V43.4737C12.3854 44.1024 12.6351 44.7054 13.0797 45.1499C13.5243 45.5945 14.1273 45.8443 14.756 45.8443H43.2033C43.832 45.8443 44.435 45.5945 44.8795 45.1499C45.3241 44.7054 45.5739 44.1024 45.5739 43.4737V15.0264C45.5739 14.3976 45.3241 13.7947 44.8795 13.3501C44.435 12.9055 43.832 12.6558 43.2033 12.6558ZM19.4972 24.5088C20.0778 24.5089 20.6383 24.7221 21.0722 25.1079C21.5061 25.4937 21.7833 26.0254 21.8512 26.602L21.8678 26.8794V38.7324C21.8671 39.3367 21.6358 39.9178 21.221 40.3572C20.8062 40.7965 20.2393 41.0609 19.6361 41.0963C19.0329 41.1318 18.439 40.9355 17.9757 40.5477C17.5123 40.1599 17.2146 39.6098 17.1432 39.0098L17.1266 38.7324V26.8794C17.1266 26.2507 17.3764 25.6477 17.8209 25.2031C18.2655 24.7586 18.8685 24.5088 19.4972 24.5088ZM26.609 22.1382C27.1642 22.1381 27.7018 22.3329 28.1281 22.6886C28.5544 23.0442 28.8423 23.5382 28.9417 24.0845C29.4192 23.8087 29.9123 23.561 30.4186 23.3425C31.9998 22.6668 34.368 22.2947 36.5063 22.9655C37.6276 23.3211 38.7536 23.9849 39.5881 25.1157C40.3348 26.1232 40.7378 27.3488 40.8184 28.7261L40.8327 29.25V38.7324C40.832 39.3367 40.6006 39.9178 40.1858 40.3572C39.7711 40.7965 39.2042 41.0609 38.601 41.0963C37.9978 41.1318 37.4039 40.9355 36.9405 40.5477C36.4772 40.1599 36.1794 39.6098 36.108 39.0098L36.0914 38.7324V29.25C36.0914 28.4677 35.9018 28.1026 35.7785 27.9343C35.6014 27.7145 35.3576 27.5581 35.0839 27.4887C34.259 27.2279 33.0713 27.3654 32.2819 27.702C31.0966 28.2093 30.0108 29.0058 29.2712 29.7431L28.9796 30.056V38.7324C28.979 39.3367 28.7476 39.9178 28.3328 40.3572C27.918 40.7965 27.3511 41.0609 26.748 41.0963C26.1448 41.1318 25.5508 40.9355 25.0875 40.5477C24.6241 40.1599 24.3264 39.6098 24.255 39.0098L24.2384 38.7324V24.5088C24.2384 23.8801 24.4882 23.2771 24.9328 22.8325C25.3773 22.388 25.9803 22.1382 26.609 22.1382ZM19.4972 17.397C20.1259 17.397 20.7289 17.6467 21.1735 18.0913C21.618 18.5359 21.8678 19.1389 21.8678 19.7676C21.8678 20.3963 21.618 20.9993 21.1735 21.4439C20.7289 21.8884 20.1259 22.1382 19.4972 22.1382C18.8685 22.1382 18.2655 21.8884 17.8209 21.4439C17.3764 20.9993 17.1266 20.3963 17.1266 19.7676C17.1266 19.1389 17.3764 18.5359 17.8209 18.0913C18.2655 17.6467 18.8685 17.397 19.4972 17.397Z" fill="white"/>
</svg>
