<svg width="146" height="27" viewBox="0 0 146 27" fill="none" xmlns="http://www.w3.org/2000/svg">
<path d="M11.76 21.448C10.1733 21.448 8.708 21.2053 7.364 20.72C6.03867 20.216 4.88133 19.5067 3.892 18.592C2.92133 17.6773 2.16533 16.5947 1.624 15.344C1.08267 14.0933 0.812 12.712 0.812 11.2C0.812 9.688 1.08267 8.30667 1.624 7.056C2.16533 5.80533 2.93067 4.72267 3.92 3.808C4.90933 2.89333 6.076 2.19333 7.42 1.708C8.78267 1.204 10.276 0.951999 11.9 0.951999C13.8413 0.951999 15.568 1.27867 17.08 1.932C18.6107 2.58533 19.8707 3.51867 20.86 4.732L16.632 8.456C16.016 7.74667 15.344 7.21467 14.616 6.86C13.9067 6.48667 13.1133 6.3 12.236 6.3C11.508 6.3 10.8453 6.412 10.248 6.636C9.66933 6.86 9.17467 7.18667 8.764 7.616C8.35333 8.04533 8.036 8.55867 7.812 9.156C7.588 9.75333 7.476 10.4347 7.476 11.2C7.476 11.928 7.588 12.6 7.812 13.216C8.036 13.8133 8.35333 14.3267 8.764 14.756C9.17467 15.1853 9.66 15.5213 10.22 15.764C10.7987 15.988 11.4427 16.1 12.152 16.1C12.8987 16.1 13.6267 15.9787 14.336 15.736C15.0453 15.4747 15.8013 15.036 16.604 14.42L20.3 18.956C19.1053 19.7587 17.7427 20.3747 16.212 20.804C14.6813 21.2333 13.1973 21.448 11.76 21.448ZM14.56 18.116V10.668H20.3V18.956L14.56 18.116ZM32.1875 21V18.284L31.7395 17.556V12.404C31.7395 11.6573 31.5062 11.088 31.0395 10.696C30.5915 10.304 29.8542 10.108 28.8275 10.108C28.1369 10.108 27.4369 10.22 26.7275 10.444C26.0182 10.6493 25.4115 10.9387 24.9075 11.312L22.8915 7.14C23.7875 6.58 24.8609 6.15067 26.1115 5.852C27.3622 5.55333 28.5849 5.404 29.7795 5.404C32.4115 5.404 34.4462 5.992 35.8835 7.168C37.3395 8.344 38.0675 10.2107 38.0675 12.768V21H32.1875ZM27.8475 21.28C26.5969 21.28 25.5515 21.0653 24.7115 20.636C23.8715 20.2067 23.2369 19.6373 22.8075 18.928C22.3782 18.2 22.1635 17.3973 22.1635 16.52C22.1635 15.5307 22.4155 14.6907 22.9195 14C23.4235 13.3093 24.1889 12.7867 25.2155 12.432C26.2609 12.0773 27.5769 11.9 29.1635 11.9H32.3555V14.952H30.1715C29.4995 14.952 29.0049 15.064 28.6875 15.288C28.3889 15.4933 28.2395 15.8107 28.2395 16.24C28.2395 16.5947 28.3702 16.8933 28.6315 17.136C28.9115 17.36 29.2849 17.472 29.7515 17.472C30.1809 17.472 30.5729 17.36 30.9275 17.136C31.3009 16.8933 31.5715 16.52 31.7395 16.016L32.5515 17.892C32.3089 19.0307 31.7955 19.88 31.0115 20.44C30.2275 21 29.1729 21.28 27.8475 21.28ZM40.8023 21V5.684H46.8223V10.304L45.8423 8.988C46.309 7.79333 47.0557 6.89733 48.0823 6.3C49.109 5.70267 50.341 5.404 51.7783 5.404V11.004C51.4983 10.9667 51.2463 10.9387 51.0223 10.92C50.817 10.9013 50.6023 10.892 50.3783 10.892C49.4263 10.892 48.6423 11.144 48.0263 11.648C47.429 12.1333 47.1303 12.9827 47.1303 14.196V21H40.8023ZM61.9922 21V18.284L61.5442 17.556V12.404C61.5442 11.6573 61.3109 11.088 60.8442 10.696C60.3962 10.304 59.6589 10.108 58.6322 10.108C57.9416 10.108 57.2416 10.22 56.5322 10.444C55.8229 10.6493 55.2162 10.9387 54.7122 11.312L52.6962 7.14C53.5922 6.58 54.6656 6.15067 55.9162 5.852C57.1669 5.55333 58.3896 5.404 59.5842 5.404C62.2162 5.404 64.2509 5.992 65.6882 7.168C67.1442 8.344 67.8722 10.2107 67.8722 12.768V21H61.9922ZM57.6522 21.28C56.4016 21.28 55.3562 21.0653 54.5162 20.636C53.6762 20.2067 53.0416 19.6373 52.6122 18.928C52.1829 18.2 51.9682 17.3973 51.9682 16.52C51.9682 15.5307 52.2202 14.6907 52.7242 14C53.2282 13.3093 53.9936 12.7867 55.0202 12.432C56.0656 12.0773 57.3816 11.9 58.9682 11.9H62.1602V14.952H59.9762C59.3042 14.952 58.8096 15.064 58.4922 15.288C58.1936 15.4933 58.0442 15.8107 58.0442 16.24C58.0442 16.5947 58.1749 16.8933 58.4362 17.136C58.7162 17.36 59.0896 17.472 59.5562 17.472C59.9856 17.472 60.3776 17.36 60.7322 17.136C61.1056 16.8933 61.3762 16.52 61.5442 16.016L62.3562 17.892C62.1136 19.0307 61.6002 19.88 60.8162 20.44C60.0322 21 58.9776 21.28 57.6522 21.28ZM78.6645 26.712C77.1525 26.712 75.7338 26.5533 74.4085 26.236C73.0831 25.9187 71.9445 25.4427 70.9925 24.808L73.1205 20.496C73.7178 20.9627 74.4738 21.3267 75.3885 21.588C76.3218 21.868 77.1991 22.008 78.0205 22.008C79.3271 22.008 80.2605 21.728 80.8205 21.168C81.3805 20.6267 81.6605 19.8427 81.6605 18.816V17.528L81.9405 12.768L81.9685 8.008V5.684H87.9885V17.948C87.9885 20.916 87.1671 23.1187 85.5245 24.556C83.8818 25.9933 81.5951 26.712 78.6645 26.712ZM77.4325 20.16C76.1445 20.16 74.9405 19.8613 73.8205 19.264C72.7005 18.648 71.7951 17.7893 71.1045 16.688C70.4138 15.5867 70.0685 14.28 70.0685 12.768C70.0685 11.256 70.4138 9.94933 71.1045 8.848C71.7951 7.74667 72.7005 6.89733 73.8205 6.3C74.9405 5.70267 76.1445 5.404 77.4325 5.404C78.7578 5.404 79.8405 5.66533 80.6805 6.188C81.5391 6.71067 82.1738 7.52267 82.5845 8.624C82.9951 9.70667 83.2005 11.088 83.2005 12.768C83.2005 14.448 82.9951 15.8387 82.5845 16.94C82.1738 18.0227 81.5391 18.8347 80.6805 19.376C79.8405 19.8987 78.7578 20.16 77.4325 20.16ZM79.1125 15.232C79.6165 15.232 80.0645 15.1293 80.4565 14.924C80.8485 14.7187 81.1565 14.4293 81.3805 14.056C81.6045 13.6827 81.7165 13.2533 81.7165 12.768C81.7165 12.264 81.6045 11.8347 81.3805 11.48C81.1565 11.1067 80.8485 10.8267 80.4565 10.64C80.0645 10.4347 79.6165 10.332 79.1125 10.332C78.6271 10.332 78.1791 10.4347 77.7685 10.64C77.3765 10.8267 77.0591 11.1067 76.8165 11.48C76.5925 11.8347 76.4805 12.264 76.4805 12.768C76.4805 13.2533 76.5925 13.6827 76.8165 14.056C77.0591 14.4293 77.3765 14.7187 77.7685 14.924C78.1791 15.1293 78.6271 15.232 79.1125 15.232ZM99.2427 21.28C97.3761 21.28 95.7427 20.9347 94.3427 20.244C92.9614 19.5533 91.8881 18.6107 91.1227 17.416C90.3574 16.2027 89.9747 14.84 89.9747 13.328C89.9747 11.7787 90.3481 10.4067 91.0947 9.212C91.8601 8.01733 92.8961 7.084 94.2027 6.412C95.5281 5.74 97.0121 5.404 98.6547 5.404C100.167 5.404 101.557 5.70267 102.827 6.3C104.115 6.89733 105.141 7.784 105.907 8.96C106.691 10.136 107.083 11.592 107.083 13.328C107.083 13.552 107.073 13.804 107.055 14.084C107.036 14.3453 107.017 14.588 106.999 14.812H95.2107V11.76H103.639L101.259 12.572C101.259 11.9747 101.147 11.4707 100.923 11.06C100.717 10.6307 100.428 10.304 100.055 10.08C99.6814 9.83733 99.2334 9.716 98.7107 9.716C98.1881 9.716 97.7307 9.83733 97.3387 10.08C96.9654 10.304 96.6761 10.6307 96.4707 11.06C96.2654 11.4707 96.1627 11.9747 96.1627 12.572V13.524C96.1627 14.1773 96.2934 14.7373 96.5547 15.204C96.8161 15.6707 97.1894 16.0253 97.6747 16.268C98.1601 16.492 98.7481 16.604 99.4387 16.604C100.148 16.604 100.727 16.5107 101.175 16.324C101.641 16.1373 102.127 15.8573 102.631 15.484L105.935 18.816C105.188 19.6187 104.264 20.2347 103.163 20.664C102.08 21.0747 100.773 21.28 99.2427 21.28ZM117.67 21V1.4H128.142C130.849 1.4 132.846 1.88533 134.134 2.856C135.422 3.808 136.066 5.03067 136.066 6.524C136.066 7.51333 135.786 8.4 135.226 9.184C134.685 9.94933 133.892 10.556 132.846 11.004C131.801 11.452 130.513 11.676 128.982 11.676L129.542 10.164C131.073 10.164 132.389 10.3787 133.49 10.808C134.61 11.2373 135.469 11.8627 136.066 12.684C136.682 13.4867 136.99 14.4573 136.99 15.596C136.99 17.2947 136.281 18.62 134.862 19.572C133.462 20.524 131.409 21 128.702 21H117.67ZM124.166 16.38H128.142C128.87 16.38 129.412 16.2493 129.766 15.988C130.14 15.7267 130.326 15.344 130.326 14.84C130.326 14.336 130.14 13.9533 129.766 13.692C129.412 13.4307 128.87 13.3 128.142 13.3H123.718V8.932H127.246C127.993 8.932 128.534 8.81067 128.87 8.568C129.225 8.30667 129.402 7.94267 129.402 7.476C129.402 6.99067 129.225 6.62667 128.87 6.384C128.534 6.14133 127.993 6.02 127.246 6.02H124.166V16.38Z" fill="white"/>
<path d="M142.26 21.28C141.215 21.28 140.337 20.944 139.628 20.272C138.919 19.5813 138.564 18.704 138.564 17.64C138.564 16.5573 138.919 15.6893 139.628 15.036C140.337 14.3827 141.215 14.056 142.26 14.056C143.305 14.056 144.183 14.3827 144.892 15.036C145.601 15.6893 145.956 16.5573 145.956 17.64C145.956 18.704 145.601 19.5813 144.892 20.272C144.183 20.944 143.305 21.28 142.26 21.28Z" fill="#22E4F6"/>
</svg>
