<svg width="85" height="85" viewBox="0 0 85 85" fill="none" xmlns="http://www.w3.org/2000/svg">
<path d="M68.3161 12.6996C67.268 12.7968 66.251 13.1078 65.3278 13.6133L52.793 20.2539L35.8594 16.1022L34.8633 15.8552L33.8672 16.3519L28.1403 19.6722L24.7377 21.6644L27.8906 24.071L35.113 29.5508L26.0658 34.3666L16.3519 29.9652L15.1911 29.4685L14.0277 30.0502L9.37922 32.5391L6.30859 34.1993L8.63281 36.6908L22.9925 52.1289L24.3206 53.7068L26.1481 52.7107L39.8438 45.406L37.1052 60.5121L36.1914 65.3278L40.7575 63.418L47.5628 60.5121L48.5589 60.0977L48.9759 59.1016L58.8519 35.113L72.7972 27.641C76.6381 25.5771 78.1841 20.6896 76.1175 16.8513C75.1074 15.0028 73.4065 13.6295 71.3867 13.0316C70.3933 12.7282 69.3514 12.6156 68.3161 12.6996ZM68.8128 18.0121C69.1448 17.9908 69.4875 18.0014 69.8089 18.0971C70.3118 18.2373 70.7608 18.5256 71.0975 18.9245C71.4343 19.3234 71.6432 19.8144 71.6971 20.3336C71.751 20.8529 71.6473 21.3763 71.3996 21.8359C71.1519 22.2954 70.7717 22.6697 70.3083 22.9102L55.4492 30.9613L54.6178 31.3757L54.2858 32.2894L44.4098 56.031L43.2464 56.5277L46.07 40.8399L47.0661 35.445L42.2503 38.0189L25.4841 47.0661L14.9414 35.6097L15.3558 35.36L25.0697 39.6791L26.3128 40.2582L27.3913 39.5941L67.8194 18.2618C68.1286 18.1077 68.4675 18.0225 68.8128 18.0121ZM35.5273 21.4997L45.738 23.9886L40.2581 26.8122L34.2816 22.2461L35.5273 21.4997ZM7.96875 69.0625V74.375H77.0313V69.0625H7.96875Z" fill="white"/>
</svg>
