<svg width="80" height="80" viewBox="0 0 80 80" fill="none" xmlns="http://www.w3.org/2000/svg">
<path d="M33.3333 71.1666V52.1666L38 38.8333C38.2777 38.2222 38.6811 37.7088 39.21 37.2933C39.7388 36.8777 40.3911 36.6688 41.1666 36.6666H65.5C66.2777 36.6666 66.9444 36.8755 67.5 37.2933C68.0555 37.7111 68.4444 38.2244 68.6666 38.8333L73.3333 52.1666V71.1666C73.3333 71.7777 73.1255 72.2922 72.71 72.71C72.2944 73.1277 71.78 73.3355 71.1666 73.3333H68.8333C68.2222 73.3333 67.7088 73.1255 67.2933 72.71C66.8777 72.2944 66.6688 71.78 66.6666 71.1666V68.3333H40V71.1666C40 71.7777 39.7922 72.2922 39.3766 72.71C38.9611 73.1277 38.4466 73.3355 37.8333 73.3333H35.5C34.8888 73.3333 34.3755 73.1255 33.96 72.71C33.5444 72.2944 33.3355 71.78 33.3333 71.1666ZM40 48.3333H66.6666L64.3333 41.6666H42.3333L40 48.3333ZM43.3333 61.6666C44.2777 61.6666 45.07 61.3466 45.71 60.7066C46.35 60.0666 46.6688 59.2755 46.6666 58.3333C46.6644 57.3911 46.3444 56.6 45.7066 55.96C45.0688 55.32 44.2777 55 43.3333 55C42.3888 55 41.5977 55.32 40.96 55.96C40.3222 56.6 40.0022 57.3911 40 58.3333C39.9977 59.2755 40.3177 60.0677 40.96 60.71C41.6022 61.3522 42.3933 61.6711 43.3333 61.6666ZM63.3333 61.6666C64.2777 61.6666 65.07 61.3466 65.71 60.7066C66.35 60.0666 66.6688 59.2755 66.6666 58.3333C66.6644 57.3911 66.3444 56.6 65.7066 55.96C65.0688 55.32 64.2777 55 63.3333 55C62.3888 55 61.5977 55.32 60.96 55.96C60.3222 56.6 60.0022 57.3911 60 58.3333C59.9977 59.2755 60.3177 60.0677 60.96 60.71C61.6022 61.3522 62.3933 61.6711 63.3333 61.6666ZM20 46.6666V40H26.6666V46.6666H20ZM36.6666 26.6666V20H43.3333V26.6666H36.6666ZM20 60V53.3333H26.6666V60H20ZM20 73.3333V66.6666H26.6666V73.3333H20ZM6.66663 73.3333V26.6666H23.3333V6.66663H56.6666V30H50V13.3333H30V33.3333H13.3333V73.3333H6.66663ZM38.3333 63.3333H68.3333V53.3333H38.3333V63.3333Z" fill="white"/>
</svg>
