<svg width="53" height="52" viewBox="0 0 53 52" fill="none" xmlns="http://www.w3.org/2000/svg">
<path d="M6.22363 25.9998C6.22363 16.2942 6.22363 11.4392 9.2385 8.42429C12.2534 5.40942 17.1062 5.40942 26.8162 5.40942C36.5219 5.40942 41.3747 5.40942 44.3896 8.42429C47.4045 11.4392 47.4045 16.292 47.4045 25.9998C47.4045 35.7055 47.4045 40.5605 44.3896 43.5754C41.3747 46.5903 36.5219 46.5903 26.814 46.5903C17.1084 46.5903 12.2555 46.5903 9.2385 43.5754C6.2258 40.5583 6.22363 35.7077 6.22363 25.9998Z" stroke="white" stroke-width="3" stroke-linecap="round" stroke-linejoin="round"/>
<path d="M15.9769 36.837L25.0671 27.749M25.0671 27.749L15.9769 15.1628H21.9958L28.5631 24.253L37.651 15.1628M25.0671 27.749L31.63 36.837H37.651L28.5631 24.2508" stroke="white" stroke-width="3" stroke-linecap="round" stroke-linejoin="round"/>
</svg>
